<svg width="199" height="60" viewBox="0 0 199 60" fill="none" xmlns="http://www.w3.org/2000/svg">
<path d="M42.8246 42.8473L38.7722 39.7287L38.6058 39.9543C37.3431 41.6901 35.3756 42.6904 33.2123 42.6904C29.5319 42.6904 26.5366 39.6895 26.5366 36.002C26.5366 32.3146 29.5319 29.3136 33.2123 29.3136C35.2092 29.3136 37.0886 30.1962 38.3513 31.7261L38.5275 31.9321L42.5408 28.8134L42.3646 28.5977C40.1132 25.8027 36.7851 24.2041 33.2221 24.2041C26.7226 24.2041 21.4368 29.4999 21.4368 36.002C21.4368 42.5041 26.7226 47.7999 33.2123 47.7999C36.9613 47.7999 40.4069 46.0739 42.6582 43.0631L42.8246 42.8473Z" fill="black"/>
<path d="M42.1884 47.7706H47.7091L52.1041 37.1594L56.5285 47.7706H62.0492L52.1041 23.8904L42.1884 47.7706Z" fill="black"/>
<path d="M63.1945 23.9688V47.7705H68.2943V35.8843L74.1968 41.5136L80.109 35.8843V47.7705H85.2088V23.9688L74.1968 34.4819L63.1945 23.9688Z" fill="black"/>
<path d="M98.5408 24.371L87.1665 24.3318V29.4413H98.5408C99.3532 29.4413 100.038 30.1278 100.038 30.9418C100.038 31.334 99.872 31.7263 99.5979 31.9715L99.5783 31.9911C99.3336 32.2559 98.9812 32.403 98.5505 32.403H87.1567V47.7609H92.2565V37.5223H99.0302H99.0498C102.456 37.2379 105.119 34.3546 105.119 30.9516C105.119 29.1765 104.424 27.5289 103.161 26.303C101.937 25.0575 100.293 24.371 98.5408 24.371Z" fill="black"/>
<path d="M107.086 47.7707H122.552V42.6612H112.186V37.5223H122.552V32.4128H107.086V47.7707Z" fill="black"/>
<path d="M122.552 24.3416H107.086V29.451H122.552V24.3416Z" fill="black"/>
<path d="M136.432 36.826L140.993 32.5207C141.923 31.6282 142.452 30.3827 142.452 29.1078C142.452 26.4795 140.338 24.3416 137.724 24.3416H124.51V48.1433L132.614 40.435L136.794 47.7412H142.648L136.432 36.826ZM129.57 29.451H136.549C136.638 29.451 136.638 29.5785 136.638 29.5785C136.638 29.6178 136.628 29.6472 136.628 29.6472L129.57 36.3062V29.451Z" fill="black"/>
<path d="M170.153 10.8567H164.339L160.962 17.1528L157.585 10.8567H151.81L158.074 22.5565L144.312 48.1138H150.087L160.962 27.9406L171.749 48.1432H177.563L163.85 22.5565L170.153 10.8567Z" fill="black"/>
<path d="M161.628 48.1136H168.656L164.799 41.4055L161.628 35.9136V48.1136Z" fill="black"/>
<path d="M160.247 35.894L157.066 41.4056L153.2 48.1137H160.247V35.894Z" fill="black"/>
</svg>
